#N canvas 165 56 992 689 10;
#X obj 87 -180 inlet;
#X obj 11 54 cnv 15 100 130 empty empty empty 20 12 0 14 -249661 -66577
0;
#X obj 19 118 timer;
#X obj 11 190 cnv 15 180 180 empty empty empty 20 12 0 14 -249661 -66577
0;
#X msg 61 214 stop;
#X obj 92 242 tabwrite~ \$0-tab;
#X msg 21 215 start;
#X text 68 191 write loop;
#X obj 119 55 cnv 15 60 50 empty empty empty 20 12 0 14 -249661 -66577
0;
#X obj 134 81 t b b;
#N canvas 326 247 450 250 (subpatch) 0;
#X array \$0-tab 840000 float 0;
#X coords 0 1 839999 -1 200 140 1 0 0;
#X restore 24 518 graph;
#X obj 731 97 cnv 15 200 500 empty empty empty 20 12 0 14 -233017 -66577
0;
#X obj 225 510 cnv 15 100 60 empty empty empty 20 12 0 14 -233017 -66577
0;
#X obj 359 510 cnv 15 100 60 empty empty empty 20 12 0 14 -233017 -66577
0;
#X obj 256 533 tgl 35 0 empty empty empty 17 7 0 10 -262144 -1 -1 1
1;
#X msg 10 320 1;
#X msg 47 321 0;
#X msg 158 324 1;
#X obj 872 238 * 44.1;
#X obj 821 485 pack 0 f;
#X floatatom 884 274 10 0 0 0 - - -, f 10;
#X obj 821 518 tabplay~ \$0-tab;
#X obj 192 174 adc~;
#X obj 494 509 cnv 15 100 90 empty empty empty 20 12 0 14 -233017 -66577
0;
#X obj 526 532 tgl 35 0 empty \$0_is_loop_playing empty 17 7 0 10 -262144
-1 -1 1 1;
#X obj 809 423 i 1;
#X floatatom 761 452 5 0 0 0 - - -, f 5;
#X obj 388 535 tgl 35 0 empty empty empty 17 7 0 10 -262144 -1 -1 0
1;
#X obj 486 -183 cnv 15 200 60 empty empty empty 20 12 0 14 -233017
-66577 0;
#X text 138 61 STOP rec;
#X text 43 57 START rec;
#X obj 201 57 cnv 15 100 60 empty empty empty 20 12 0 14 -233017 -66577
0;
#X obj 320 57 cnv 15 100 60 empty empty empty 20 12 0 14 -233017 -66577
0;
#X text 224 59 play loop;
#X text 337 58 stop loop;
#X msg 226 78 1;
#X msg 349 76 0;
#X obj 766 572 outlet~;
#X obj 441 56 cnv 15 100 60 empty empty empty 20 12 0 14 -233017 -66577
0;
#X text 464 58 kill main;
#X text 497 507 Is loop playing;
#X msg 450 98 0;
#X obj 543 -147 bng 25 250 50 0 empty empty empty 17 7 0 10 -262144
-1 -1;
#X obj 146 -40 i 0;
#X obj 12 54 bng 15 250 50 0 empty empty empty 17 7 0 10 -262144 -1
-1;
#X obj 608 506 cnv 15 100 60 empty empty empty 20 12 0 14 -233017 -66577
0;
#X text 628 507 loop size;
#X floatatom 641 540 5 0 0 0 - #0_loop_size -, f 5;
#X obj 127 -81 bng 15 250 50 0 empty empty empty 17 7 0 10 -262144
-1 -1;
#X obj 485 -180 r tempo;
#X msg -23 320 0;
#X obj 14 417 f;
#X obj 48 418 + 1;
#X obj 760 194 mod \$1;
#X obj -70 370 i 0;
#X obj -66 397 select 1;
#X obj -71 439 bng 15 250 50 0 empty empty empty 17 7 0 10 -262144
-1 -1;
#X msg 178 -41 0;
#X obj 120 54 bng 15 250 50 0 empty empty empty 17 7 0 10 -262144 -1
-1;
#X obj -6 268 t b b;
#X obj -75 319 bng 15 250 50 0 empty empty empty 17 7 0 10 -262144
-1 -1;
#X obj 753 124 f;
#X obj 787 125 + 1;
#X obj 753 81 bng 15 250 50 0 empty empty empty 17 7 0 10 -262144 -1
-1;
#X floatatom 755 165 5 0 0 0 - - -, f 5;
#X obj 763 221 select 0;
#X obj 761 267 bng 35 250 50 0 empty empty empty 17 7 0 10 -262144
-1 -1;
#X msg 234 -104 1;
#X msg 25 -106 3;
#X msg 186 -106 2;
#X obj 83 -2 select 3 2 1;
#X msg 856 68 0;
#X obj 127 -107 r tempo1;
#X obj 752 42 r tempo2;
#X obj -85 270 r tempo3;
#X obj 189 32 i 0;
#X msg 498 99 -1;
#X obj 449 74 t b b;
#X obj 812 448 select 1 -1;
#X obj 970 449 cnv 15 100 120 empty empty empty 20 12 0 14 -233017
-66577 0;
#X text 990 450 Kill;
#X obj 974 472 bng 15 250 50 0 empty empty empty 17 7 0 10 -262144
-1 -1;
#X msg 976 511 0;
#X obj 214 8 r \$0_is_loop_recorded;
#X obj 266 107 s \$0_is_loop_playing;
#X obj 220 129 s \$0_init_count;
#X obj 441 141 s \$0_loop_size;
#X obj 435 181 s \$0_is_loop_recorded;
#X obj 562 138 s \$0_is_loop_playing;
#X obj 18 351 s \$0_is_loop_recording;
#X obj 157 352 s \$0_is_loop_recorded;
#X obj 158 373 s \$0_is_loop_playing;
#X obj 224 513 r \$0_is_loop_recorded;
#X obj 354 511 r \$0_is_loop_recording;
#X obj 811 367 r \$0_is_loop_playing;
#X obj 18 157 s \$0_timer;
#X obj 868 193 r \$0_timer;
#X obj 851 126 r \$0_loop_size;
#X obj 978 548 s \$0_is_loop_playing;
#X obj 15 458 s \$0_loop_size;
#X obj 856 43 r \$0_init_count;
#X obj 596 -181 r master_loop;
#X obj 638 -157 bng 35 250 50 0 empty empty empty 17 7 0 10 -262144
-1 -1;
#X obj -61 -80 bng 15 250 50 0 empty empty empty 17 7 0 10 -262144
-1 -1;
#X obj -43 -47 i 0;
#X msg -15 -47 0;
#X obj 20 379 s \$0_init_count;
#X obj -61 -105 r master_loop;
#X obj 253 621 outlet;
#X obj 379 621 outlet;
#X obj 522 624 outlet;
#X obj 96 -137 route /start_rec /stop_rec /play /stop /delete;
#X msg 135 -181 /start_rec;
#X msg 214 -179 /stop_rec;
#X msg 285 -180 /play;
#X msg 329 -181 /stop;
#X msg 373 -180 /delete;
#X connect 0 0 111 0;
#X connect 2 0 95 0;
#X connect 4 0 5 0;
#X connect 4 0 16 0;
#X connect 4 0 17 0;
#X connect 6 0 5 0;
#X connect 6 0 59 0;
#X connect 9 0 4 0;
#X connect 9 1 2 1;
#X connect 14 0 108 0;
#X connect 15 0 54 1;
#X connect 15 0 89 0;
#X connect 16 0 54 1;
#X connect 16 0 89 0;
#X connect 16 0 106 0;
#X connect 17 0 90 0;
#X connect 17 0 91 0;
#X connect 18 0 19 1;
#X connect 18 0 20 0;
#X connect 19 0 21 0;
#X connect 21 0 37 0;
#X connect 22 0 5 0;
#X connect 24 0 110 0;
#X connect 25 0 26 0;
#X connect 25 0 78 0;
#X connect 27 0 109 0;
#X connect 35 0 84 0;
#X connect 35 0 85 0;
#X connect 36 0 84 0;
#X connect 41 0 86 0;
#X connect 41 0 87 0;
#X connect 43 0 57 0;
#X connect 43 0 70 0;
#X connect 44 0 2 0;
#X connect 44 0 6 0;
#X connect 48 0 43 0;
#X connect 49 0 42 0;
#X connect 50 0 51 0;
#X connect 51 0 52 0;
#X connect 51 0 99 0;
#X connect 52 0 51 1;
#X connect 53 0 65 0;
#X connect 54 0 55 0;
#X connect 55 0 56 0;
#X connect 55 0 51 0;
#X connect 57 0 43 1;
#X connect 58 0 9 0;
#X connect 59 0 15 0;
#X connect 59 1 50 0;
#X connect 60 0 54 0;
#X connect 61 0 62 0;
#X connect 61 0 64 0;
#X connect 62 0 61 1;
#X connect 63 0 61 0;
#X connect 64 0 53 0;
#X connect 65 0 66 0;
#X connect 66 0 25 0;
#X connect 67 0 43 1;
#X connect 68 0 104 1;
#X connect 69 0 43 1;
#X connect 70 0 44 0;
#X connect 70 1 58 0;
#X connect 70 2 75 0;
#X connect 71 0 61 1;
#X connect 72 0 48 0;
#X connect 73 0 63 0;
#X connect 74 0 60 0;
#X connect 75 0 35 0;
#X connect 76 0 88 0;
#X connect 77 0 41 0;
#X connect 77 1 76 0;
#X connect 78 0 19 0;
#X connect 78 1 81 0;
#X connect 81 0 82 0;
#X connect 82 0 98 0;
#X connect 83 0 75 1;
#X connect 92 0 14 0;
#X connect 93 0 27 0;
#X connect 94 0 25 1;
#X connect 96 0 18 0;
#X connect 97 0 53 1;
#X connect 100 0 71 0;
#X connect 101 0 102 0;
#X connect 103 0 104 0;
#X connect 104 0 105 0;
#X connect 104 0 70 0;
#X connect 105 0 104 1;
#X connect 107 0 103 0;
#X connect 111 0 68 0;
#X connect 111 1 69 0;
#X connect 111 2 67 0;
#X connect 111 3 36 0;
#X connect 111 4 77 0;
#X connect 112 0 111 0;
#X connect 113 0 111 0;
#X connect 114 0 111 0;
#X connect 115 0 111 0;
#X connect 116 0 111 0;
#X coords 0 689 1 688 200 300 0;
