#N canvas 1 56 682 689 10;
#X obj 53 -116 inlet;
#X obj 45 -2 cnv 15 100 130 empty empty empty 20 12 0 14 -260097 -66577
0;
#X obj 53 62 timer;
#X obj 9 172 cnv 15 280 250 empty empty empty 20 12 0 14 -232576 -66577
0;
#X msg 61 214 stop;
#X obj 192 291 tabwrite~ \$0-tab;
#X msg 21 215 start;
#X text 116 174 write loop;
#X obj 155 1 cnv 15 60 50 empty empty empty 20 12 0 14 -260097 -66577
0;
#X obj 164 24 t b b;
#N canvas 328 244 450 250 (subpatch) 0;
#X array \$0-tab 440000 float 0;
#X coords 0 1 439999 -1 200 140 1 0 0;
#X restore 13 442 graph;
#X obj 241 437 cnv 15 100 60 empty empty empty 20 12 0 14 -233017 -66577
0;
#X obj 398 435 cnv 15 100 60 empty empty empty 20 12 0 14 -233017 -66577
0;
#X obj 249 463 tgl 35 0 empty empty empty 17 7 0 10 -262144 -1 -1 0
1;
#X msg 10 320 1;
#X msg 47 321 0;
#X msg 133 322 1;
#X obj 236 197 adc~;
#X obj 533 434 cnv 15 100 90 empty empty empty 20 12 0 14 -233017 -66577
0;
#X obj 552 521 tgl 35 0 empty empty empty 17 7 0 10 -262144 -1 -1 0
1;
#X obj 655 431 cnv 15 100 60 empty empty empty 20 12 0 14 -233017 -66577
0;
#X obj 699 458 tgl 35 0 empty empty empty 17 7 0 10 -262144 -1 -1 0
1;
#X text 168 4 STOP rec;
#X text 77 1 START rec;
#X obj 235 1 cnv 15 100 60 empty empty empty 20 12 0 14 -260097 -66577
0;
#X obj 354 2 cnv 15 100 60 empty empty empty 20 12 0 14 -260097 -66577
0;
#X text 258 3 play loop;
#X text 371 2 stop loop;
#X msg 260 22 1;
#X msg 383 20 0;
#X obj 475 0 cnv 15 100 60 empty empty empty 20 12 0 14 -260097 -66577
0;
#X text 498 2 kill main;
#X text 536 432 Is loop playing;
#X msg 487 22 0;
#X obj 300 52 s \$0_is_loop_playing;
#X obj 476 83 s \$0_is_loop_recorded;
#X obj 468 129 s \$0_is_loop_playing;
#X obj 52 101 s \$0_timer;
#X obj 231 441 r \$0_is_loop_recorded;
#X obj 374 435 r \$0_is_loop_recording;
#X obj 655 434 r \$0_contrainst;
#X obj 9 349 s \$0_is_loop_recording;
#X obj 154 350 s \$0_is_loop_recorded;
#X obj 155 372 s \$0_is_loop_playing;
#X obj 156 399 s \$0_contrainst;
#X obj 600 -64 cnv 15 350 490 empty empty empty 20 12 0 14 -262130
-66577 0;
#X obj 781 258 * 44.1;
#X obj 705 295 pack 0 f;
#X obj 616 60 bng 45 250 50 0 empty empty empty 17 7 0 10 -262144 -1
-1;
#X obj 705 328 tabplay~ \$0-tab;
#X floatatom 660 210 5 0 0 0 - - -, f 5;
#X obj 809 524 outlet~;
#X obj 883 -59 r \$0_timer;
#X obj 613 114 s master_loop;
#X obj 978 -60 cnv 15 280 430 empty empty empty 20 12 0 14 -233017
-66577 0;
#X floatatom 1033 41 5 0 0 0 - - -, f 5;
#X obj 998 -21 t i i;
#X obj 1021 138 /;
#X floatatom 1044 -29 5 0 0 0 - - -, f 5;
#X obj 1089 280 metro;
#X obj 1089 312 bng 40 250 50 0 empty empty empty 17 7 0 10 -262144
-1 -1;
#X msg 1001 235 bang;
#X msg 1053 233 stop;
#X obj 1008 199 select 1;
#X obj 1008 171 r \$0_contrainst;
#X obj 1161 -19 log;
#X obj 1163 70 i;
#X obj 1161 20 / 0.693147;
#X floatatom 1162 47 5 0 0 0 - - -, f 5;
#X floatatom 1164 101 5 0 0 0 - - -, f 5;
#X obj 1174 187 pow;
#X msg 1140 159 2;
#X floatatom 1175 231 5 0 0 0 - - -, f 5;
#X obj 1091 372 s tempo;
#X obj 711 113 r \$0_is_loop_playing;
#X obj 1198 296 s \$0_loop_size;
#X obj 455 154 s \$0_init_count;
#X obj 266 512 outlet;
#X obj 379 518 outlet;
#X obj 479 568 outlet;
#X obj 633 523 outlet;
#X obj 408 461 tgl 35 0 empty empty empty 17 7 0 10 -262144 -1 -1 0
1;
#X obj 52 -50 route /start_rec /stop_rec /play /stop /delete;
#X msg 338 -116 /delete;
#X msg 298 -115 /stop;
#X msg 251 -115 /play;
#X msg 180 -115 /stop_rec;
#X msg 98 -116 /start_rec;
#X msg 560 312 symbol /ready_to_play;
#X obj 560 386 pack s 1;
#X obj 650 400 s toOSC;
#X msg 561 338 symbol /ready_to_stop;
#X obj 694 151 i 0;
#X obj 608 235 change;
#X obj -20 -42 pack s 1;
#X obj -20 -11 s toOSC;
#X obj -10 -74 symbol;
#X obj 1140 126 t b f;
#X obj 129 245 t b a;
#X text 607 -61 Play Loop;
#X obj 155 -11 bng 15 250 50 0 empty empty empty 17 7 0 10 -262144
-1 -1;
#X obj 65 30 bng 15 250 50 0 empty empty empty 17 7 0 10 -262144 -1
-1;
#X obj 712 515 sel 1;
#X msg 712 543 symbol /tempo_fixed;
#X obj 712 566 pack s 0;
#X obj 712 591 s toOSC;
#X text 1063 -59 Calculating a metronome;
#X obj 704 78 metro;
#X msg 660 6 bang;
#X msg 720 4 stop;
#X obj 675 -30 select 1;
#X obj 675 -58 r \$0_contrainst;
#X obj 1031 14 / 500;
#X obj 823 400 pack s 0;
#X obj 823 425 s toOSC;
#X msg 823 377 symbol /clear_all;
#X msg 523 24 -1;
#X obj 529 448 r \$0_is_loop_playing;
#X obj 530 472 sel -1;
#X obj 605 260 select 1 0;
#X msg 521 494 0;
#X obj 696 258 select 1 -1;
#X obj 843 351 bng 15 250 50 0 empty empty empty 17 7 0 10 -262144
-1 -1;
#X obj 913 430 s \$0_contrainst;
#X msg 958 397 0;
#X connect 0 0 82 0;
#X connect 0 0 96 0;
#X connect 2 0 37 0;
#X connect 4 0 15 0;
#X connect 4 0 98 0;
#X connect 6 0 5 0;
#X connect 6 0 14 0;
#X connect 9 0 4 0;
#X connect 9 1 2 1;
#X connect 13 0 77 0;
#X connect 14 0 41 0;
#X connect 15 0 41 0;
#X connect 16 0 42 0;
#X connect 16 0 43 0;
#X connect 16 0 44 0;
#X connect 17 0 5 0;
#X connect 19 0 79 0;
#X connect 21 0 80 0;
#X connect 21 0 102 0;
#X connect 28 0 34 0;
#X connect 29 0 34 0;
#X connect 33 0 35 0;
#X connect 33 0 76 0;
#X connect 38 0 13 0;
#X connect 39 0 81 0;
#X connect 40 0 21 0;
#X connect 46 0 47 1;
#X connect 47 0 49 0;
#X connect 48 0 53 0;
#X connect 49 0 51 0;
#X connect 52 0 46 0;
#X connect 52 0 56 0;
#X connect 52 0 107 1;
#X connect 55 0 65 0;
#X connect 56 0 57 0;
#X connect 56 1 112 0;
#X connect 57 0 59 1;
#X connect 59 0 60 0;
#X connect 60 0 73 0;
#X connect 61 0 59 0;
#X connect 62 0 59 0;
#X connect 63 0 61 0;
#X connect 63 1 62 0;
#X connect 64 0 63 0;
#X connect 65 0 67 0;
#X connect 66 0 69 0;
#X connect 67 0 68 0;
#X connect 68 0 66 0;
#X connect 69 0 97 0;
#X connect 70 0 72 0;
#X connect 71 0 70 0;
#X connect 72 0 57 1;
#X connect 72 0 75 0;
#X connect 74 0 92 1;
#X connect 81 0 78 0;
#X connect 82 0 2 0;
#X connect 82 0 6 0;
#X connect 82 1 9 0;
#X connect 82 1 100 0;
#X connect 82 1 101 0;
#X connect 82 2 28 0;
#X connect 82 3 29 0;
#X connect 82 4 33 0;
#X connect 82 4 116 0;
#X connect 83 0 82 0;
#X connect 84 0 82 0;
#X connect 85 0 82 0;
#X connect 86 0 82 0;
#X connect 87 0 82 0;
#X connect 88 0 89 0;
#X connect 89 0 90 0;
#X connect 91 0 89 0;
#X connect 92 0 50 0;
#X connect 92 0 93 0;
#X connect 92 0 121 0;
#X connect 93 0 119 0;
#X connect 94 0 95 0;
#X connect 96 0 94 0;
#X connect 97 0 71 0;
#X connect 97 1 70 1;
#X connect 98 0 16 0;
#X connect 98 1 5 0;
#X connect 102 0 103 0;
#X connect 103 0 104 0;
#X connect 104 0 105 0;
#X connect 107 0 48 0;
#X connect 107 0 92 0;
#X connect 108 0 107 0;
#X connect 109 0 107 0;
#X connect 110 0 108 0;
#X connect 110 1 109 0;
#X connect 111 0 110 0;
#X connect 112 0 55 0;
#X connect 113 0 114 0;
#X connect 115 0 113 0;
#X connect 116 0 36 0;
#X connect 117 0 118 0;
#X connect 118 0 120 0;
#X connect 118 1 19 0;
#X connect 119 0 88 0;
#X connect 119 1 91 0;
#X connect 120 0 19 0;
#X connect 121 0 47 0;
#X connect 121 1 115 0;
#X connect 121 1 122 0;
#X connect 121 1 124 0;
#X connect 124 0 123 0;
#X coords 0 689 1 688 200 300 0;
