#N canvas 153 56 992 689 10;
#X obj 87 -180 inlet;
#X obj 11 54 cnv 15 100 130 empty empty empty 20 12 0 14 -249661 -66577
0;
#X obj 19 118 timer;
#X obj 11 212 cnv 15 380 280 empty empty empty 20 12 0 14 -249661 -66577
0;
#X msg 168 223 stop;
#X obj 255 265 tabwrite~ \$0-tab;
#X msg 128 224 start;
#X text 208 212 write loop;
#X obj 119 53 cnv 15 60 50 empty empty empty 20 12 0 14 -249661 -66577
0;
#X obj 134 81 t b b;
#N canvas 326 247 450 250 (subpatch) 0;
#X array \$0-tab 840000 float 0;
#X coords 0 1 839999 -1 200 140 1 0 0;
#X restore 24 518 graph;
#X obj 752 28 cnv 15 200 650 empty empty empty 20 12 0 14 -233017 -66577
0;
#X obj 225 510 cnv 15 100 60 empty empty empty 20 12 0 14 -233017 -66577
0;
#X obj 359 510 cnv 15 100 60 empty empty empty 20 12 0 14 -233017 -66577
0;
#X obj 256 533 tgl 35 0 empty empty empty 17 7 0 10 -262144 -1 -1 0
1;
#X msg 117 329 1;
#X msg 154 330 0;
#X msg 265 333 1;
#X obj 872 238 * 44.1;
#X obj 850 485 pack 0 f;
#X floatatom 884 274 10 0 0 0 - - -, f 10;
#X obj 850 518 tabplay~ \$0-tab;
#X obj 301 233 adc~;
#X obj 494 509 cnv 15 100 90 empty empty empty 20 12 0 14 -233017 -66577
0;
#X obj 526 532 tgl 35 0 empty \$0_is_loop_playing empty 17 7 0 10 -262144
-1 -1 0 -1;
#X floatatom 752 329 5 0 0 0 - - -, f 5;
#X obj 388 535 tgl 35 0 empty empty empty 17 7 0 10 -262144 -1 -1 0
1;
#X obj 486 -183 cnv 15 200 60 empty empty empty 20 12 0 14 -233017
-66577 0;
#X text 138 61 STOP rec;
#X text 43 57 START rec;
#X obj 201 57 cnv 15 100 60 empty empty empty 20 12 0 14 -233017 -66577
0;
#X obj 320 57 cnv 15 100 60 empty empty empty 20 12 0 14 -233017 -66577
0;
#X text 224 59 play loop;
#X text 337 58 stop loop;
#X msg 226 78 1;
#X msg 349 76 0;
#X obj 766 572 outlet~;
#X obj 441 56 cnv 15 100 60 empty empty empty 20 12 0 14 -233017 -66577
0;
#X text 464 58 kill main;
#X text 497 507 Is loop playing;
#X msg 450 98 0;
#X obj 543 -147 bng 25 250 50 0 empty empty empty 17 7 0 10 -262144
-1 -1;
#X obj 146 -40 i 0;
#X obj 12 54 bng 15 250 50 0 empty empty empty 17 7 0 10 -262144 -1
-1;
#X obj 608 506 cnv 15 100 60 empty empty empty 20 12 0 14 -233017 -66577
0;
#X text 628 507 loop size;
#X floatatom 641 540 5 0 0 0 - #0_loop_size -, f 5;
#X obj 127 -81 bng 15 250 50 0 empty empty empty 17 7 0 10 -262144
-1 -1;
#X obj 485 -180 r tempo;
#X msg 84 329 0;
#X obj 121 426 f;
#X obj 155 427 + 1;
#X obj 760 194 mod \$1;
#X obj 37 379 i 0;
#X obj 41 406 select 1;
#X obj 36 448 bng 15 250 50 0 empty empty empty 17 7 0 10 -262144 -1
-1;
#X msg 178 -41 0;
#X obj 116 56 bng 15 250 50 0 empty empty empty 17 7 0 10 -262144 -1
-1;
#X obj 101 277 t b b;
#X obj 32 328 bng 15 250 50 0 empty empty empty 17 7 0 10 -262144 -1
-1;
#X obj 753 124 f;
#X obj 787 125 + 1;
#X obj 753 81 bng 15 250 50 0 empty empty empty 17 7 0 10 -262144 -1
-1;
#X floatatom 755 165 5 0 0 0 - - -, f 5;
#X obj 763 221 select 0;
#X obj 761 267 bng 35 250 50 0 empty empty empty 17 7 0 10 -262144
-1 -1;
#X msg 234 -104 1;
#X msg 25 -106 3;
#X msg 186 -106 2;
#X obj 83 -2 select 3 2 1;
#X msg 856 68 0;
#X obj 127 -107 r tempo1;
#X obj 752 42 r tempo2;
#X obj 22 279 r tempo3;
#X obj 189 32 i 0;
#X msg 498 99 -1;
#X obj 873 446 select 1 -1;
#X obj 970 449 cnv 15 100 120 empty empty empty 20 12 0 14 -233017
-66577 0;
#X text 990 450 Kill;
#X obj 975 472 bng 15 250 50 0 empty empty empty 17 7 0 10 -262144
-1 -1;
#X msg 976 511 0;
#X obj 214 8 r \$0_is_loop_recorded;
#X obj 266 107 s \$0_is_loop_playing;
#X obj 220 129 s \$0_init_count;
#X obj 449 139 s \$0_loop_size;
#X obj 562 138 s \$0_is_loop_playing;
#X obj 125 360 s \$0_is_loop_recording;
#X obj 264 361 s \$0_is_loop_recorded;
#X obj 265 382 s \$0_is_loop_playing;
#X obj 224 513 r \$0_is_loop_recorded;
#X obj 354 511 r \$0_is_loop_recording;
#X obj 816 300 r \$0_is_loop_playing;
#X obj 18 157 s \$0_timer;
#X obj 868 193 r \$0_timer;
#X obj 851 126 r \$0_loop_size;
#X obj 978 548 s \$0_is_loop_playing;
#X obj 122 467 s \$0_loop_size;
#X obj 856 43 r \$0_init_count;
#X obj 596 -181 r master_loop;
#X obj 638 -157 bng 35 250 50 0 empty empty empty 17 7 0 10 -262144
-1 -1;
#X obj -61 -80 bng 15 250 50 0 empty empty empty 17 7 0 10 -262144
-1 -1;
#X obj -43 -47 i 0;
#X msg -15 -47 0;
#X obj 127 388 s \$0_init_count;
#X obj -61 -105 r master_loop;
#X obj 253 621 outlet;
#X obj 379 621 outlet;
#X obj 522 624 outlet;
#X obj 96 -137 route /start_rec /stop_rec /play /stop /delete;
#X msg 135 -181 /start_rec;
#X msg 214 -179 /stop_rec;
#X msg 285 -180 /play;
#X msg 329 -181 /stop;
#X msg 373 -180 /delete;
#X obj -146 48 cnv 15 130 150 empty empty empty 20 12 0 14 -204786
-66577 0;
#X obj 448 162 s \$0_is_loop_recorded;
#X obj 561 113 s \$0_force_stop_recording;
#X obj -78 -1 r \$0_force_stop_recording;
#X obj 691 -184 cnv 15 300 160 empty empty empty 20 12 0 14 -204786
-66577 0;
#X text 708 -182 Gestion de l'osc et le num du channel;
#X obj 889 -161 inlet;
#X floatatom 891 -127 5 0 0 0 - - -, f 5;
#X obj 789 -161 r \$0_toOSC;
#X obj 847 -96 pack s f;
#X obj -135 203 s \$0_toOSC;
#X obj 816 -48 s toOSC;
#X msg 697 452 symbol /ready_to_play;
#X msg 714 478 symbol /ready_to_stop;
#X msg 924 495 stop;
#X obj 739 522 s \$0_toOSC;
#X obj 449 74 t b b b;
#X obj 805 331 i 0;
#X obj 751 415 select 1;
#X obj 754 390 change;
#X msg -142 96 symbol /ready_to_record;
#X msg -179 123 symbol /ready_to_stop_record;
#X msg 973 588 symbol /ready_to_delete;
#X obj 972 622 s \$0_toOSC;
#X connect 0 0 108 0;
#X connect 2 0 92 0;
#X connect 4 0 5 0;
#X connect 4 0 16 0;
#X connect 4 0 17 0;
#X connect 6 0 5 0;
#X connect 6 0 58 0;
#X connect 9 0 4 0;
#X connect 9 1 2 1;
#X connect 14 0 105 0;
#X connect 15 0 53 1;
#X connect 15 0 86 0;
#X connect 16 0 53 1;
#X connect 16 0 86 0;
#X connect 16 0 103 0;
#X connect 17 0 87 0;
#X connect 17 0 88 0;
#X connect 18 0 19 1;
#X connect 18 0 20 0;
#X connect 19 0 21 0;
#X connect 21 0 36 0;
#X connect 22 0 5 0;
#X connect 24 0 107 0;
#X connect 26 0 106 0;
#X connect 34 0 82 0;
#X connect 34 0 83 0;
#X connect 35 0 82 0;
#X connect 40 0 84 0;
#X connect 40 0 115 0;
#X connect 42 0 56 0;
#X connect 42 0 69 0;
#X connect 43 0 2 0;
#X connect 43 0 6 0;
#X connect 43 0 134 0;
#X connect 47 0 42 0;
#X connect 48 0 41 0;
#X connect 49 0 50 0;
#X connect 50 0 51 0;
#X connect 50 0 96 0;
#X connect 51 0 50 1;
#X connect 52 0 64 0;
#X connect 53 0 54 0;
#X connect 54 0 55 0;
#X connect 54 0 50 0;
#X connect 56 0 42 1;
#X connect 57 0 9 0;
#X connect 57 0 135 0;
#X connect 58 0 15 0;
#X connect 58 1 49 0;
#X connect 59 0 53 0;
#X connect 60 0 61 0;
#X connect 60 0 63 0;
#X connect 61 0 60 1;
#X connect 62 0 60 0;
#X connect 63 0 52 0;
#X connect 64 0 65 0;
#X connect 65 0 131 0;
#X connect 66 0 42 1;
#X connect 67 0 101 1;
#X connect 68 0 42 1;
#X connect 69 0 43 0;
#X connect 69 1 57 0;
#X connect 69 2 74 0;
#X connect 70 0 60 1;
#X connect 71 0 47 0;
#X connect 72 0 62 0;
#X connect 73 0 59 0;
#X connect 74 0 34 0;
#X connect 75 0 85 0;
#X connect 76 0 19 0;
#X connect 76 1 79 0;
#X connect 76 2 128 0;
#X connect 79 0 80 0;
#X connect 79 0 136 0;
#X connect 80 0 95 0;
#X connect 81 0 74 1;
#X connect 89 0 14 0;
#X connect 90 0 26 0;
#X connect 91 0 131 1;
#X connect 93 0 18 0;
#X connect 94 0 52 1;
#X connect 97 0 70 0;
#X connect 98 0 99 0;
#X connect 100 0 101 0;
#X connect 101 0 102 0;
#X connect 101 0 69 0;
#X connect 102 0 101 1;
#X connect 104 0 100 0;
#X connect 108 0 67 0;
#X connect 108 1 68 0;
#X connect 108 2 66 0;
#X connect 108 3 35 0;
#X connect 108 4 130 0;
#X connect 109 0 108 0;
#X connect 110 0 108 0;
#X connect 111 0 108 0;
#X connect 112 0 108 0;
#X connect 113 0 108 0;
#X connect 117 0 57 0;
#X connect 120 0 121 0;
#X connect 121 0 123 1;
#X connect 122 0 123 0;
#X connect 123 0 125 0;
#X connect 126 0 129 0;
#X connect 127 0 129 0;
#X connect 128 0 21 0;
#X connect 130 0 40 0;
#X connect 130 1 75 0;
#X connect 130 2 116 0;
#X connect 131 0 25 0;
#X connect 131 0 76 0;
#X connect 131 0 133 0;
#X connect 132 0 126 0;
#X connect 132 1 127 0;
#X connect 133 0 132 0;
#X connect 134 0 124 0;
#X connect 135 0 124 0;
#X connect 136 0 137 0;
#X coords 0 689 1 688 200 300 0;
