#N canvas 678 56 682 689 10;
#X obj 160 137 looper_main-0-0-3;
#X obj 385 191 dac~;
#X obj 691 -20 cnv 15 250 400 empty empty empty 20 12 0 14 -204800
-66577 0;
#X obj 748 16 bng 25 250 50 0 empty empty empty 17 7 0 10 -262144 -1
-1;
#X obj 690 -17 r tempo;
#X obj 748 49 t b b b;
#X obj 786 73 s tempo1;
#X obj 769 95 s tempo2;
#X obj 748 120 s tempo3;
#X obj 801 -18 r master_loop;
#X obj 842 16 bng 35 250 50 0 empty empty empty 17 7 0 10 -262144 -1
-1;
#X obj 325 -218 unpackOSC;
#X obj 325 -195 pipelist;
#X obj 325 -169 routeOSC /1 /2 /3 /4;
#X msg 132 -59 /stop;
#X msg 159 -83 set \$1;
#X obj 160 255 tgl 15 0 empty empty empty 17 7 0 10 -262144 -1 -1 1
1;
#X obj 184 283 tgl 15 0 empty empty empty 17 7 0 10 -262144 -1 -1 0
1;
#X obj 209 328 tgl 15 0 empty empty empty 17 7 0 10 -262144 -1 -1 0
1;
#X msg 145 3 /start_rec;
#X msg 153 28 /stop_rec;
#X msg 160 50 /play;
#X msg 165 75 /stop;
#X msg 168 99 /delete;
#X obj 131 -108 t b s;
#X text -29 46 launch message manually;
#X text -20 -106 message launch by OSC;
#X text 72 254 Loop recorded;
#X text 88 283 Loop recording;
#X text 127 329 Loop Playing;
#X msg 261 -60 /play;
#X msg 286 -81 set \$1;
#X obj 262 -102 t b s;
#X msg 270 -1 /start_rec;
#X msg 276 25 /stop_rec;
#X msg 284 48 /play;
#X msg 289 74 /stop;
#X msg 292 101 /delete;
#X msg 423 100 /delete;
#X msg 419 72 /stop;
#X msg 413 45 /play;
#X msg 405 19 /stop_rec;
#X msg 398 -3 /start_rec;
#X msg 389 -57 /play;
#X msg 414 -78 set \$1;
#X obj 390 -99 t b s;
#X obj 266 -128 unpack s;
#X obj 391 -127 unpack s;
#X obj 134 -136 unpack s;
#X msg 506 -53 /play;
#X msg 531 -74 set \$1;
#X obj 507 -95 t b s;
#X obj 508 -123 unpack s;
#X msg 520 -4 /start_rec;
#X msg 528 20 /stop_rec;
#X msg 535 44 /play;
#X msg 542 70 /stop;
#X msg 555 98 /delete;
#X obj 288 247 tgl 15 0 empty empty empty 17 7 0 10 -262144 -1 -1 0
1;
#X obj 323 279 tgl 15 0 empty empty empty 17 7 0 10 -262144 -1 -1 0
1;
#X obj 358 322 tgl 15 0 empty empty empty 17 7 0 10 -262144 -1 -1 0
-1;
#X obj 110 524 udpsend;
#X obj 9 370 loadbang;
#X obj -17 369 bng 15 250 50 0 empty empty empty 17 7 0 10 -262144
-1 -1;
#X obj 209 493 packOSC;
#X obj 110 556 tgl 15 0 empty empty empty 17 7 0 10 -262144 -1 -1 0
1;
#X msg 12 487 disconnect;
#X msg 11 411 connect localhost 9998;
#X obj 325 -241 udpreceive 9999;
#X obj 158 -183 print osc;
#X obj 803 320 s toOSC;
#X obj 218 394 r toOSC;
#X obj 315 507 print sendOSC;
#X msg 216 455 send \$1 \$2;
#X obj 716 245 pack s 1;
#X obj 831 245 pack s 1;
#X msg 834 214 symbol /tempo;
#X msg 715 212 symbol /tempoBar;
#X obj 288 136 looper_slave-0-0-3;
#X obj 355 111 i 2;
#X obj 355 89 loadbang;
#X obj 479 87 loadbang;
#X obj 621 85 loadbang;
#X obj 479 109 i 3;
#X obj 621 107 i 4;
#X obj 547 243 tgl 15 0 empty empty empty 17 7 0 10 -262144 -1 -1 0
1;
#X obj 582 272 tgl 15 0 empty empty empty 17 7 0 10 -262144 -1 -1 0
1;
#X obj 617 315 tgl 15 0 empty empty empty 17 7 0 10 -262144 -1 -1 0
-1;
#X obj 418 240 tgl 15 0 empty empty empty 17 7 0 10 -262144 -1 -1 0
1;
#X obj 453 269 tgl 15 0 empty empty empty 17 7 0 10 -262144 -1 -1 0
1;
#X obj 488 312 tgl 15 0 empty empty empty 17 7 0 10 -262144 -1 -1 0
-1;
#X obj 418 138 looper_slave-0-0-3;
#X obj 547 138 looper_slave-0-0-3;
#X connect 0 0 16 0;
#X connect 0 1 17 0;
#X connect 0 2 18 0;
#X connect 0 4 1 0;
#X connect 0 4 1 1;
#X connect 3 0 5 0;
#X connect 3 0 77 0;
#X connect 4 0 3 0;
#X connect 5 0 8 0;
#X connect 5 1 7 0;
#X connect 5 2 6 0;
#X connect 9 0 10 0;
#X connect 10 0 76 0;
#X connect 11 0 12 0;
#X connect 11 0 69 0;
#X connect 12 0 13 0;
#X connect 13 0 48 0;
#X connect 13 1 46 0;
#X connect 13 2 47 0;
#X connect 13 3 52 0;
#X connect 14 0 0 0;
#X connect 15 0 14 0;
#X connect 19 0 0 0;
#X connect 20 0 0 0;
#X connect 21 0 0 0;
#X connect 22 0 0 0;
#X connect 23 0 0 0;
#X connect 24 0 14 0;
#X connect 24 1 15 0;
#X connect 30 0 78 0;
#X connect 31 0 30 0;
#X connect 32 0 30 0;
#X connect 32 1 31 0;
#X connect 33 0 78 0;
#X connect 34 0 78 0;
#X connect 35 0 78 0;
#X connect 36 0 78 0;
#X connect 37 0 78 0;
#X connect 38 0 91 0;
#X connect 39 0 91 0;
#X connect 40 0 91 0;
#X connect 41 0 91 0;
#X connect 42 0 91 0;
#X connect 43 0 91 0;
#X connect 44 0 43 0;
#X connect 45 0 43 0;
#X connect 45 1 44 0;
#X connect 46 0 32 0;
#X connect 47 0 45 0;
#X connect 48 0 24 0;
#X connect 49 0 92 0;
#X connect 50 0 49 0;
#X connect 51 0 49 0;
#X connect 51 1 50 0;
#X connect 52 0 51 0;
#X connect 53 0 92 0;
#X connect 54 0 92 0;
#X connect 55 0 92 0;
#X connect 56 0 92 0;
#X connect 57 0 92 0;
#X connect 61 0 65 0;
#X connect 62 0 67 0;
#X connect 63 0 67 0;
#X connect 64 0 61 0;
#X connect 66 0 61 0;
#X connect 67 0 61 0;
#X connect 68 0 11 0;
#X connect 71 0 73 0;
#X connect 73 0 64 0;
#X connect 73 0 72 0;
#X connect 74 0 70 0;
#X connect 75 0 70 0;
#X connect 76 0 75 0;
#X connect 77 0 74 0;
#X connect 78 0 58 0;
#X connect 78 1 59 0;
#X connect 78 2 60 0;
#X connect 78 3 1 0;
#X connect 78 3 1 1;
#X connect 79 0 78 1;
#X connect 80 0 79 0;
#X connect 81 0 83 0;
#X connect 82 0 84 0;
#X connect 83 0 91 1;
#X connect 84 0 92 1;
#X connect 91 0 88 0;
#X connect 91 1 89 0;
#X connect 91 2 90 0;
#X connect 91 3 1 0;
#X connect 91 3 1 1;
#X connect 92 0 85 0;
#X connect 92 1 86 0;
#X connect 92 2 87 0;
#X connect 92 3 1 0;
#X connect 92 3 1 1;
