#N canvas 611 56 750 689 10;
#X obj 159 139 looper_main-0-0-3;
#X obj 385 191 dac~;
#X obj 691 -20 cnv 15 250 400 empty empty empty 20 12 0 14 -204800
-66577 0;
#X obj 748 16 bng 25 250 50 0 empty empty empty 17 7 0 10 -262144 -1
-1;
#X obj 690 -17 r tempo;
#X obj 748 49 t b b b;
#X obj 786 73 s tempo1;
#X obj 769 95 s tempo2;
#X obj 748 120 s tempo3;
#X obj 801 -18 r master_loop;
#X obj 842 16 bng 35 250 50 0 empty empty empty 17 7 0 10 -262144 -1
-1;
#X msg 147 4 /start_rec;
#X msg 153 28 /stop_rec;
#X msg 160 50 /play;
#X msg 165 75 /stop;
#X msg 13 102 /delete;
#X text -29 46 launch message manually;
#X text -24 -152 message launch by OSC;
#X msg 276 25 /stop_rec;
#X msg 284 48 /play;
#X msg 289 74 /stop;
#X msg 292 101 /delete;
#X msg 423 100 /delete;
#X msg 419 72 /stop;
#X msg 413 45 /play;
#X msg 405 19 /stop_rec;
#X msg 398 -3 /start_rec;
#X msg 520 -4 /start_rec;
#X msg 528 20 /stop_rec;
#X msg 535 44 /play;
#X msg 542 70 /stop;
#X msg 555 98 /delete;
#X obj 803 320 s toOSC;
#X msg 834 214 symbol /tempo;
#X msg 715 212 symbol /tempoBar;
#X obj 288 136 looper_slave-0-0-3;
#X obj 355 111 i 2;
#X obj 355 89 loadbang;
#X obj 479 87 loadbang;
#X obj 621 85 loadbang;
#X obj 479 109 i 3;
#X obj 621 107 i 4;
#X obj -5 372 cnv 15 450 220 empty empty empty 20 12 0 14 -159808 -66577
0;
#X obj 57 528 udpsend;
#X obj 76 398 loadbang;
#X obj 11 382 bng 15 250 50 0 empty empty empty 17 7 0 10 -262144 -1
-1;
#X obj 118 496 packOSC;
#X obj 143 574 tgl 15 0 empty empty empty 17 7 0 10 -262144 -1 -1 0
1;
#X msg 2 427 disconnect;
#X msg 77 427 connect localhost 9998;
#X obj 318 383 r toOSC;
#X msg 229 466 send \$1 \$2;
#X text 1 571 OSC to webUI;
#X obj 55 237 cnv 15 600 110 empty empty empty 20 12 0 14 -204800 -66577
0;
#X obj 160 255 tgl 15 0 empty empty empty 17 7 0 10 -262144 -1 -1 1
1;
#X obj 184 283 tgl 15 0 empty empty empty 17 7 0 10 -262144 -1 -1 0
1;
#X obj 209 328 tgl 15 0 empty empty empty 17 7 0 10 -262144 -1 -1 0
1;
#X text 72 254 Loop recorded;
#X text 88 283 Loop recording;
#X text 127 329 Loop Playing;
#X obj 288 247 tgl 15 0 empty empty empty 17 7 0 10 -262144 -1 -1 1
1;
#X obj 323 279 tgl 15 0 empty empty empty 17 7 0 10 -262144 -1 -1 0
1;
#X obj 358 322 tgl 15 0 empty empty empty 17 7 0 10 -262144 -1 -1 0
1;
#X obj 547 243 tgl 15 0 empty empty empty 17 7 0 10 -262144 -1 -1 0
1;
#X obj 582 272 tgl 15 0 empty empty empty 17 7 0 10 -262144 -1 -1 0
1;
#X obj 617 315 tgl 15 0 empty empty empty 17 7 0 10 -262144 -1 -1 0
-1;
#X obj 418 240 tgl 15 0 empty empty empty 17 7 0 10 -262144 -1 -1 0
1;
#X obj 453 269 tgl 15 0 empty empty empty 17 7 0 10 -262144 -1 -1 0
1;
#X obj 488 312 tgl 15 0 empty empty empty 17 7 0 10 -262144 -1 -1 0
-1;
#X text 150 -46 Channel 1;
#X text 284 -50 Channel 2;
#X text 410 -51 Channel 3;
#X text 532 -53 Channel 4;
#X msg 422 498 close;
#X obj 320 524 comport 0 57600;
#X msg 370 499 open 0;
#X obj 716 245 pack s 0;
#X obj 831 245 pack s 0;
#N canvas 172 353 960 356 wordToNum 1;
#X obj 654 -16 inlet;
#X obj 672 269 outlet;
#X obj 12 105 cnv 15 700 60 empty empty empty 20 12 0 14 -233017 -66577
0;
#X obj 35 124 i 48;
#X obj 99 106 i 49;
#X obj 164 106 i 50;
#X obj 230 106 i 51;
#X obj 294 105 i 52;
#X obj 362 105 i 53;
#X obj 428 105 i 54;
#X obj 494 105 i 55;
#X obj 557 105 i 56;
#X obj 624 104 i 57;
#X obj 36 87 bng 15 250 50 0 empty empty empty 17 7 0 10 -262144 -1
-1;
#X obj 656 18 unpack s 1;
#X obj 34 49 sel /start_rec /ready_to_record /stop_rec /ready_to_stop_record
/play /ready_to_play /stop /ready_to_stop /delete /ready_to_delete
, f 110;
#X obj 738 103 sel /tempoBar /tempo /delete_all;
#X obj 726 139 cnv 15 200 40 empty empty empty 20 12 0 14 -233017 -66577
0;
#X obj 738 140 i 48;
#X obj 801 139 i 49;
#X obj 864 140 i 50;
#X obj 738 222 pack 48 48;
#X obj 713 52 + 48;
#X obj 672 223 pack 50 48;
#X connect 0 0 14 0;
#X connect 3 0 23 0;
#X connect 4 0 23 0;
#X connect 5 0 23 0;
#X connect 6 0 23 0;
#X connect 7 0 23 0;
#X connect 8 0 23 0;
#X connect 9 0 23 0;
#X connect 10 0 23 0;
#X connect 11 0 23 0;
#X connect 12 0 23 0;
#X connect 13 0 3 0;
#X connect 14 0 15 0;
#X connect 14 1 22 0;
#X connect 15 0 13 0;
#X connect 15 1 4 0;
#X connect 15 2 5 0;
#X connect 15 3 6 0;
#X connect 15 4 7 0;
#X connect 15 5 8 0;
#X connect 15 6 9 0;
#X connect 15 7 10 0;
#X connect 15 8 11 0;
#X connect 15 9 12 0;
#X connect 15 10 16 0;
#X connect 16 0 18 0;
#X connect 16 1 19 0;
#X connect 16 2 20 0;
#X connect 18 0 21 0;
#X connect 19 0 21 0;
#X connect 20 0 21 0;
#X connect 21 0 1 0;
#X connect 22 0 23 1;
#X connect 23 0 1 0;
#X restore 318 431 pd wordToNum;
#X msg 320 468 \$2 \$1 13;
#X obj 418 138 looper_slave-0-0-3;
#X obj 547 138 looper_slave-0-0-3;
#N canvas 640 312 450 300 readFromArduino 0;
#X obj 184 89 makefilename %c;
#X obj 187 122 list prepend;
#X obj 290 122 t l;
#X obj 24 155 == 13;
#X obj 100 93 t f f;
#X obj 38 215 bng 15 250 50 0 empty empty empty 17 7 0 10 -262144 -1
-1;
#X obj 39 186 sel 1;
#X obj 130 269 list prepend;
#X obj 342 182 bng 15 250 50 0 empty empty empty 17 7 0 10 -262144
-1 -1;
#X obj 17 312 print fromArduino;
#X obj 101 34 inlet;
#X text -12 9 read String from arduino and print it to console;
#X text -52 52 This is used for debug ONLY;
#X text 345 201 clear list;
#X text -45 155 end of msg;
#X connect 0 0 1 0;
#X connect 1 0 2 0;
#X connect 1 0 7 1;
#X connect 2 0 1 1;
#X connect 3 0 6 0;
#X connect 4 0 3 0;
#X connect 4 1 0 0;
#X connect 5 0 7 0;
#X connect 6 0 5 0;
#X connect 7 0 8 0;
#X connect 7 0 9 0;
#X connect 8 0 1 1;
#X connect 10 0 4 0;
#X restore 320 574 pd readFromArduino;
#X obj 186 599 cnv 15 200 400 empty empty empty 20 12 0 14 -203904
-66577 0;
#X obj 234 707 list prepend;
#X obj 352 712 t l;
#X obj 198 657 == 13;
#X obj 294 637 t f f;
#X obj 202 709 bng 15 250 50 0 empty empty empty 17 7 0 10 -262144
-1 -1;
#X obj 197 681 sel 1;
#X obj 208 756 list prepend;
#X obj 350 771 bng 15 250 50 0 empty empty empty 17 7 0 10 -262144
-1 -1;
#X text 329 756 clear list;
#X obj 322 673 - 0;
#X obj 205 784 unpack 1 1 1 1;
#X text 187 604 translate serial from Arduino;
#X text 128 376 Send msg to web UI & arduino;
#N canvas 254 404 524 307 NumToWord 0;
#X obj 167 87 sel 0 1 2 3 4 5 6 7 8 9;
#X obj 167 6 inlet;
#X obj 180 275 outlet;
#X msg -47 145 /start_rec;
#X msg 72 145 /stop_rec;
#X msg 188 146 /play;
#X msg 278 143 /stop;
#X msg 372 143 /delete;
#X connect 0 0 3 0;
#X connect 0 2 4 0;
#X connect 0 4 5 0;
#X connect 0 6 6 0;
#X connect 0 8 7 0;
#X connect 1 0 0 0;
#X connect 3 0 2 0;
#X connect 4 0 2 0;
#X connect 5 0 2 0;
#X connect 6 0 2 0;
#X connect 7 0 2 0;
#X restore 314 844 pd NumToWord;
#X obj 314 815 - 48;
#X obj 103 -83 r msgToChannel1;
#X obj 369 -86 r msgToChannel3;
#X obj 498 -86 r msgToChannel4;
#X obj -23 599 cnv 15 200 500 empty empty empty 20 12 0 14 -232576
-66577 0;
#N canvas 534 100 498 326 OSC_receive 0;
#X obj 200 -249 unpackOSC;
#X obj 200 -226 pipelist;
#X obj 200 -200 routeOSC /1 /2 /3 /4;
#X msg 7 -90 /stop;
#X msg 34 -114 set \$1;
#X obj 6 -139 t b s;
#X msg 136 -91 /play;
#X msg 161 -112 set \$1;
#X obj 137 -133 t b s;
#X msg 264 -88 /play;
#X msg 289 -109 set \$1;
#X obj 265 -130 t b s;
#X obj 141 -159 unpack s;
#X obj 266 -158 unpack s;
#X obj 9 -167 unpack s;
#X msg 381 -84 /play;
#X msg 406 -105 set \$1;
#X obj 382 -126 t b s;
#X obj 383 -154 unpack s;
#X obj 200 -272 udpreceive 9999;
#X obj 33 -214 print osc;
#X obj 7 -25 outlet;
#X obj 137 -25 outlet;
#X obj 272 -28 outlet;
#X obj 388 -31 outlet;
#X connect 0 0 1 0;
#X connect 0 0 20 0;
#X connect 1 0 2 0;
#X connect 2 0 14 0;
#X connect 2 1 12 0;
#X connect 2 2 13 0;
#X connect 2 3 18 0;
#X connect 3 0 21 0;
#X connect 4 0 3 0;
#X connect 5 0 3 0;
#X connect 5 1 4 0;
#X connect 6 0 22 0;
#X connect 7 0 6 0;
#X connect 8 0 6 0;
#X connect 8 1 7 0;
#X connect 9 0 23 0;
#X connect 10 0 9 0;
#X connect 11 0 9 0;
#X connect 11 1 10 0;
#X connect 12 0 8 0;
#X connect 13 0 11 0;
#X connect 14 0 5 0;
#X connect 15 0 24 0;
#X connect 16 0 15 0;
#X connect 17 0 15 0;
#X connect 17 1 16 0;
#X connect 18 0 17 0;
#X connect 19 0 0 0;
#X restore -5 655 pd OSC_receive;
#X text -6 624 receive OSC from webUI;
#X obj -5 743 s msgToChannel1;
#X obj 21 766 s msgToChannel2;
#X obj 45 792 s msgToChannel3;
#X obj 70 820 s msgToChannel4;
#X obj 198 841 sel 0 1 2 3 4;
#X obj 212 816 - 48;
#X obj 197 922 s msgToChannel1;
#X obj 183 971 s msgToChannel2;
#X obj 288 971 s msgToChannel3;
#X obj 340 996 s msgToChannel4;
#X obj 238 -85 r msgToChannel2;
#X msg 270 -1 /start_rec;
#X obj 250 879 list;
#X obj 261 -24 print channel2;
#X obj 327 913 list trim;
#X obj 427 821 print;
#X obj 189 553 print serial_send;
#X connect 0 0 54 0;
#X connect 0 1 55 0;
#X connect 0 2 56 0;
#X connect 0 4 1 0;
#X connect 0 4 1 1;
#X connect 3 0 5 0;
#X connect 3 0 34 0;
#X connect 4 0 3 0;
#X connect 5 0 8 0;
#X connect 5 1 7 0;
#X connect 5 2 6 0;
#X connect 9 0 10 0;
#X connect 10 0 33 0;
#X connect 11 0 0 0;
#X connect 12 0 0 0;
#X connect 13 0 0 0;
#X connect 14 0 0 0;
#X connect 15 0 0 0;
#X connect 18 0 35 0;
#X connect 19 0 35 0;
#X connect 20 0 35 0;
#X connect 21 0 35 0;
#X connect 22 0 80 0;
#X connect 23 0 80 0;
#X connect 24 0 80 0;
#X connect 25 0 80 0;
#X connect 26 0 80 0;
#X connect 27 0 81 0;
#X connect 28 0 81 0;
#X connect 29 0 81 0;
#X connect 30 0 81 0;
#X connect 31 0 81 0;
#X connect 33 0 77 0;
#X connect 34 0 76 0;
#X connect 35 0 60 0;
#X connect 35 1 61 0;
#X connect 35 2 62 0;
#X connect 35 3 1 0;
#X connect 35 3 1 1;
#X connect 36 0 35 1;
#X connect 37 0 36 0;
#X connect 38 0 40 0;
#X connect 39 0 41 0;
#X connect 40 0 80 1;
#X connect 41 0 81 1;
#X connect 43 0 47 0;
#X connect 44 0 49 0;
#X connect 45 0 49 0;
#X connect 46 0 43 0;
#X connect 48 0 43 0;
#X connect 49 0 43 0;
#X connect 50 0 51 0;
#X connect 50 0 78 0;
#X connect 50 0 121 0;
#X connect 51 0 46 0;
#X connect 73 0 74 0;
#X connect 74 0 87 0;
#X connect 75 0 74 0;
#X connect 78 0 79 0;
#X connect 79 0 74 0;
#X connect 80 0 66 0;
#X connect 80 1 67 0;
#X connect 80 2 68 0;
#X connect 80 3 1 0;
#X connect 80 3 1 1;
#X connect 81 0 63 0;
#X connect 81 1 64 0;
#X connect 81 2 65 0;
#X connect 81 3 1 0;
#X connect 81 3 1 1;
#X connect 84 0 85 0;
#X connect 84 0 90 1;
#X connect 85 0 84 1;
#X connect 86 0 89 0;
#X connect 87 0 86 0;
#X connect 87 1 93 0;
#X connect 88 0 90 0;
#X connect 89 0 88 0;
#X connect 90 0 91 0;
#X connect 90 0 94 0;
#X connect 90 0 120 0;
#X connect 91 0 84 1;
#X connect 93 0 84 0;
#X connect 94 1 110 0;
#X connect 94 2 98 0;
#X connect 97 0 117 1;
#X connect 98 0 97 0;
#X connect 99 0 0 0;
#X connect 100 0 80 0;
#X connect 101 0 81 0;
#X connect 103 0 105 0;
#X connect 103 1 106 0;
#X connect 103 2 107 0;
#X connect 103 3 108 0;
#X connect 109 2 117 0;
#X connect 110 0 109 0;
#X connect 115 0 35 0;
#X connect 115 0 118 0;
#X connect 116 0 35 0;
#X connect 117 0 119 0;
#X connect 119 0 112 0;
