#N canvas 549 56 750 689 10;
#X obj 159 139 looper_main-0-0-3;
#X obj 385 191 dac~;
#X obj 691 -20 cnv 15 250 400 empty empty empty 20 12 0 14 -204800
-66577 0;
#X obj 748 16 bng 25 250 50 0 empty empty empty 17 7 0 10 -262144 -1
-1;
#X obj 690 -17 r tempo;
#X obj 748 49 t b b b;
#X obj 786 73 s tempo1;
#X obj 769 95 s tempo2;
#X obj 748 120 s tempo3;
#X obj 801 -18 r master_loop;
#X obj 842 16 bng 35 250 50 0 empty empty empty 17 7 0 10 -262144 -1
-1;
#X obj 321 -264 unpackOSC;
#X obj 321 -241 pipelist;
#X obj 321 -215 routeOSC /1 /2 /3 /4;
#X msg 128 -105 /stop;
#X msg 155 -129 set \$1;
#X msg 147 4 /start_rec;
#X msg 153 28 /stop_rec;
#X msg 160 50 /play;
#X msg 165 75 /stop;
#X msg 168 99 /delete;
#X obj 127 -154 t b s;
#X text -29 46 launch message manually;
#X text -24 -152 message launch by OSC;
#X msg 257 -106 /play;
#X msg 282 -127 set \$1;
#X obj 258 -148 t b s;
#X msg 270 -1 /start_rec;
#X msg 276 25 /stop_rec;
#X msg 284 48 /play;
#X msg 289 74 /stop;
#X msg 292 101 /delete;
#X msg 423 100 /delete;
#X msg 419 72 /stop;
#X msg 413 45 /play;
#X msg 405 19 /stop_rec;
#X msg 398 -3 /start_rec;
#X msg 385 -103 /play;
#X msg 410 -124 set \$1;
#X obj 386 -145 t b s;
#X obj 262 -174 unpack s;
#X obj 387 -173 unpack s;
#X obj 130 -182 unpack s;
#X msg 502 -99 /play;
#X msg 527 -120 set \$1;
#X obj 503 -141 t b s;
#X obj 504 -169 unpack s;
#X msg 520 -4 /start_rec;
#X msg 528 20 /stop_rec;
#X msg 535 44 /play;
#X msg 542 70 /stop;
#X msg 555 98 /delete;
#X obj 321 -287 udpreceive 9999;
#X obj 154 -229 print osc;
#X obj 803 320 s toOSC;
#X msg 834 214 symbol /tempo;
#X msg 715 212 symbol /tempoBar;
#X obj 288 136 looper_slave-0-0-3;
#X obj 355 111 i 2;
#X obj 355 89 loadbang;
#X obj 479 87 loadbang;
#X obj 621 85 loadbang;
#X obj 479 109 i 3;
#X obj 621 107 i 4;
#X obj 418 138 looper_slave-0-0-3;
#X obj 547 138 looper_slave-0-0-3;
#X obj -5 372 cnv 15 450 220 empty empty empty 20 12 0 14 -159808 -66577
0;
#X obj 57 528 udpsend;
#X obj 76 398 loadbang;
#X obj 11 382 bng 15 250 50 0 empty empty empty 17 7 0 10 -262144 -1
-1;
#X obj 118 496 packOSC;
#X obj 143 574 tgl 15 0 empty empty empty 17 7 0 10 -262144 -1 -1 0
1;
#X msg 2 427 disconnect;
#X msg 77 427 connect localhost 9998;
#X obj 318 383 r toOSC;
#X obj 151 526 print sendOSC;
#X msg 229 466 send \$1 \$2;
#X text 312 564 Serial port to Arduino;
#X text 1 571 OSC to webUI;
#X obj 55 237 cnv 15 600 110 empty empty empty 20 12 0 14 -204800 -66577
0;
#X obj 160 255 tgl 15 0 empty empty empty 17 7 0 10 -262144 -1 -1 0
1;
#X obj 184 283 tgl 15 0 empty empty empty 17 7 0 10 -262144 -1 -1 0
1;
#X obj 209 328 tgl 15 0 empty empty empty 17 7 0 10 -262144 -1 -1 0
1;
#X text 72 254 Loop recorded;
#X text 88 283 Loop recording;
#X text 127 329 Loop Playing;
#X obj 288 247 tgl 15 0 empty empty empty 17 7 0 10 -262144 -1 -1 0
1;
#X obj 323 279 tgl 15 0 empty empty empty 17 7 0 10 -262144 -1 -1 0
1;
#X obj 358 322 tgl 15 0 empty empty empty 17 7 0 10 -262144 -1 -1 0
-1;
#X obj 547 243 tgl 15 0 empty empty empty 17 7 0 10 -262144 -1 -1 0
1;
#X obj 582 272 tgl 15 0 empty empty empty 17 7 0 10 -262144 -1 -1 0
1;
#X obj 617 315 tgl 15 0 empty empty empty 17 7 0 10 -262144 -1 -1 0
-1;
#X obj 418 240 tgl 15 0 empty empty empty 17 7 0 10 -262144 -1 -1 0
1;
#X obj 453 269 tgl 15 0 empty empty empty 17 7 0 10 -262144 -1 -1 0
1;
#X obj 488 312 tgl 15 0 empty empty empty 17 7 0 10 -262144 -1 -1 0
-1;
#X text 150 -46 Channel 1;
#X text 284 -50 Channel 2;
#X text 410 -51 Channel 3;
#X text 532 -53 Channel 4;
#X msg 422 498 close;
#X obj 557 590 makefilename %c;
#X obj 320 524 comport 0 57600;
#X msg 370 499 open 0;
#X msg 564 723;
#X obj 560 623 list prepend;
#X obj 587 678 t l;
#X obj 397 656 == 13;
#X obj 473 556 t f f;
#X obj 411 716 bng 15 250 50 0 empty empty empty 17 7 0 10 -262144
-1 -1;
#X obj 412 687 sel 1;
#X obj 493 790 list prepend;
#X obj 485 834 print;
#X obj 570 825 bng 15 250 50 0 empty empty empty 17 7 0 10 -262144
-1 -1;
#X obj 716 245 pack s 0;
#X obj 831 245 pack s 0;
#X obj 478 407 pack s 1;
#X msg 479 374 symbol /stop_rec;
#X msg 320 467 print \$2 \$1 13;
#X connect 0 0 80 0;
#X connect 0 1 81 0;
#X connect 0 2 82 0;
#X connect 0 4 1 0;
#X connect 0 4 1 1;
#X connect 3 0 5 0;
#X connect 3 0 56 0;
#X connect 4 0 3 0;
#X connect 5 0 8 0;
#X connect 5 1 7 0;
#X connect 5 2 6 0;
#X connect 9 0 10 0;
#X connect 10 0 55 0;
#X connect 11 0 12 0;
#X connect 11 0 53 0;
#X connect 12 0 13 0;
#X connect 13 0 42 0;
#X connect 13 1 40 0;
#X connect 13 2 41 0;
#X connect 13 3 46 0;
#X connect 14 0 0 0;
#X connect 15 0 14 0;
#X connect 16 0 0 0;
#X connect 17 0 0 0;
#X connect 18 0 0 0;
#X connect 19 0 0 0;
#X connect 20 0 0 0;
#X connect 21 0 14 0;
#X connect 21 1 15 0;
#X connect 24 0 57 0;
#X connect 25 0 24 0;
#X connect 26 0 24 0;
#X connect 26 1 25 0;
#X connect 27 0 57 0;
#X connect 28 0 57 0;
#X connect 29 0 57 0;
#X connect 30 0 57 0;
#X connect 31 0 57 0;
#X connect 32 0 64 0;
#X connect 33 0 64 0;
#X connect 34 0 64 0;
#X connect 35 0 64 0;
#X connect 36 0 64 0;
#X connect 37 0 64 0;
#X connect 38 0 37 0;
#X connect 39 0 37 0;
#X connect 39 1 38 0;
#X connect 40 0 26 0;
#X connect 41 0 39 0;
#X connect 42 0 21 0;
#X connect 43 0 65 0;
#X connect 44 0 43 0;
#X connect 45 0 43 0;
#X connect 45 1 44 0;
#X connect 46 0 45 0;
#X connect 47 0 65 0;
#X connect 48 0 65 0;
#X connect 49 0 65 0;
#X connect 50 0 65 0;
#X connect 51 0 65 0;
#X connect 52 0 11 0;
#X connect 55 0 114 0;
#X connect 56 0 113 0;
#X connect 57 0 86 0;
#X connect 57 1 87 0;
#X connect 57 2 88 0;
#X connect 57 3 1 0;
#X connect 57 3 1 1;
#X connect 58 0 57 1;
#X connect 59 0 58 0;
#X connect 60 0 62 0;
#X connect 61 0 63 0;
#X connect 62 0 64 1;
#X connect 63 0 65 1;
#X connect 64 0 92 0;
#X connect 64 1 93 0;
#X connect 64 2 94 0;
#X connect 64 3 1 0;
#X connect 64 3 1 1;
#X connect 65 0 89 0;
#X connect 65 1 90 0;
#X connect 65 2 91 0;
#X connect 65 3 1 0;
#X connect 65 3 1 1;
#X connect 67 0 71 0;
#X connect 68 0 73 0;
#X connect 69 0 73 0;
#X connect 70 0 67 0;
#X connect 72 0 67 0;
#X connect 73 0 67 0;
#X connect 74 0 76 0;
#X connect 74 0 117 0;
#X connect 76 0 70 0;
#X connect 76 0 75 0;
#X connect 99 0 101 0;
#X connect 100 0 104 0;
#X connect 101 0 107 0;
#X connect 102 0 101 0;
#X connect 104 0 105 0;
#X connect 104 0 110 1;
#X connect 105 0 104 1;
#X connect 106 0 109 0;
#X connect 107 0 106 0;
#X connect 107 1 100 0;
#X connect 108 0 110 0;
#X connect 109 0 108 0;
#X connect 110 0 111 0;
#X connect 110 0 112 0;
#X connect 112 0 104 1;
#X connect 113 0 54 0;
#X connect 114 0 54 0;
#X connect 115 0 117 0;
#X connect 116 0 115 0;
#X connect 117 0 101 0;
