#N canvas 409 56 957 689 10;
#X obj 159 139 looper_main-0-0-3;
#X obj 385 191 dac~;
#X obj 691 -20 cnv 15 250 400 empty empty empty 20 12 0 14 -204800
-66577 0;
#X obj 749 16 bng 25 250 50 0 empty empty empty 17 7 0 10 -262144 -1
-1;
#X obj 690 -17 r tempo;
#X obj 801 -18 r master_loop;
#X obj 842 16 bng 35 250 50 0 empty empty empty 17 7 0 10 -262144 -1
-1;
#X text -29 46 launch message manually;
#X text -24 -152 message launch by OSC;
#X msg 276 25 /stop_rec;
#X msg 284 48 /play;
#X msg 289 74 /stop;
#X msg 292 101 /delete;
#X msg 423 100 /delete;
#X msg 419 72 /stop;
#X msg 413 45 /play;
#X msg 405 19 /stop_rec;
#X msg 398 -3 /start_rec;
#X msg 520 -4 /start_rec;
#X msg 528 20 /stop_rec;
#X msg 535 44 /play;
#X msg 542 70 /stop;
#X msg 555 98 /delete;
#X obj 803 320 s toOSC;
#X msg 834 214 symbol /tempo;
#X msg 715 212 symbol /tempoBar;
#X obj 355 111 i 2;
#X obj 355 89 loadbang;
#X obj 479 87 loadbang;
#X obj 621 85 loadbang;
#X obj 479 109 i 3;
#X obj 621 107 i 4;
#X obj -5 372 cnv 15 450 220 empty empty empty 20 12 0 14 -159808 -66577
0;
#X obj 57 528 udpsend;
#X obj 76 398 loadbang;
#X obj 447 380 bng 15 250 50 0 empty empty empty 17 7 0 10 -262144
-1 -1;
#X obj 118 496 packOSC;
#X obj 143 574 tgl 15 0 empty empty empty 17 7 0 10 -262144 -1 -1 0
1;
#X msg 2 427 disconnect;
#X msg 77 427 connect localhost 9998;
#X obj 318 383 r toOSC;
#X msg 229 466 send \$1 \$2;
#X text 1 571 OSC to webUI;
#X obj 55 237 cnv 15 600 110 empty empty empty 20 12 0 14 -204800 -66577
0;
#X obj 160 255 tgl 15 0 empty empty empty 17 7 0 10 -262144 -1 -1 1
1;
#X obj 184 283 tgl 15 0 empty empty empty 17 7 0 10 -262144 -1 -1 0
1;
#X obj 209 328 tgl 15 0 empty empty empty 17 7 0 10 -262144 -1 -1 1
1;
#X text 72 254 Loop recorded;
#X text 88 283 Loop recording;
#X text 127 329 Loop Playing;
#X obj 288 247 tgl 15 0 empty empty empty 17 7 0 10 -262144 -1 -1 0
1;
#X obj 323 279 tgl 15 0 empty empty empty 17 7 0 10 -262144 -1 -1 0
1;
#X obj 358 322 tgl 15 0 empty empty empty 17 7 0 10 -262144 -1 -1 0
1;
#X obj 547 243 tgl 15 0 empty empty empty 17 7 0 10 -262144 -1 -1 0
1;
#X obj 582 272 tgl 15 0 empty empty empty 17 7 0 10 -262144 -1 -1 0
1;
#X obj 617 315 tgl 15 0 empty empty empty 17 7 0 10 -262144 -1 -1 0
1;
#X obj 418 240 tgl 15 0 empty empty empty 17 7 0 10 -262144 -1 -1 0
1;
#X obj 453 269 tgl 15 0 empty empty empty 17 7 0 10 -262144 -1 -1 0
1;
#X obj 488 312 tgl 15 0 empty empty empty 17 7 0 10 -262144 -1 -1 0
1;
#X text 120 -98 Channel 1;
#X text 284 -50 Channel 2;
#X text 410 -51 Channel 3;
#X text 532 -53 Channel 4;
#X msg 404 496 close;
#X obj 320 524 comport 0 57600;
#X msg 394 473 open 0;
#X obj 716 245 pack s 0;
#X obj 831 245 pack s 0;
#N canvas 98 322 1055 372 wordToNum 0;
#X obj 654 -16 inlet;
#X obj 672 269 outlet;
#X obj 12 105 cnv 15 700 60 empty empty empty 20 12 0 14 -233017 -66577
0;
#X obj 35 124 i 48;
#X obj 99 106 i 49;
#X obj 164 106 i 50;
#X obj 230 106 i 51;
#X obj 294 105 i 52;
#X obj 362 105 i 53;
#X obj 428 105 i 54;
#X obj 494 105 i 55;
#X obj 557 105 i 56;
#X obj 624 104 i 57;
#X obj 36 87 bng 15 250 50 0 empty empty empty 17 7 0 10 -262144 -1
-1;
#X obj 656 18 unpack s 1;
#X obj 34 49 sel /start_rec /ready_to_record /stop_rec /ready_to_stop_record
/play /ready_to_play /stop /ready_to_stop /delete /ready_to_delete
, f 110;
#X obj 726 139 cnv 15 200 40 empty empty empty 20 12 0 14 -233017 -66577
0;
#X obj 738 222 pack 48 48;
#X obj 713 52 + 48;
#X obj 672 223 pack 50 48;
#X obj 738 103 sel /clear_all /tempo /clear_bar /tempo_fixed;
#X obj 738 142 i 48;
#X obj 790 141 i 49;
#X obj 842 142 i 50;
#X obj 890 141 i 51;
#X obj 936 188 bng 15 250 50 0 empty empty empty 17 7 0 10 -262144
-1 -1;
#X connect 0 0 14 0;
#X connect 3 0 19 0;
#X connect 4 0 19 0;
#X connect 5 0 19 0;
#X connect 6 0 19 0;
#X connect 7 0 19 0;
#X connect 8 0 19 0;
#X connect 9 0 19 0;
#X connect 10 0 19 0;
#X connect 11 0 19 0;
#X connect 12 0 19 0;
#X connect 13 0 3 0;
#X connect 14 0 15 0;
#X connect 14 1 18 0;
#X connect 15 0 13 0;
#X connect 15 1 4 0;
#X connect 15 2 5 0;
#X connect 15 3 6 0;
#X connect 15 4 7 0;
#X connect 15 5 8 0;
#X connect 15 6 9 0;
#X connect 15 7 10 0;
#X connect 15 8 11 0;
#X connect 15 9 12 0;
#X connect 15 10 20 0;
#X connect 17 0 1 0;
#X connect 18 0 19 1;
#X connect 19 0 1 0;
#X connect 20 0 21 0;
#X connect 20 1 22 0;
#X connect 20 2 23 0;
#X connect 20 3 24 0;
#X connect 20 3 25 0;
#X connect 21 0 17 0;
#X connect 22 0 17 0;
#X connect 23 0 17 0;
#X connect 24 0 17 0;
#X restore 318 431 pd wordToNum;
#X msg 320 468 \$2 \$1 13;
#X obj 418 138 looper_slave-0-0-3;
#N canvas 636 318 450 300 readFromArduino 0;
#X obj 184 89 makefilename %c;
#X obj 187 122 list prepend;
#X obj 290 122 t l;
#X obj 24 155 == 13;
#X obj 100 93 t f f;
#X obj 38 215 bng 15 250 50 0 empty empty empty 17 7 0 10 -262144 -1
-1;
#X obj 39 186 sel 1;
#X obj 130 269 list prepend;
#X obj 342 182 bng 15 250 50 0 empty empty empty 17 7 0 10 -262144
-1 -1;
#X obj 17 312 print fromArduino;
#X obj 101 34 inlet;
#X text -12 9 read String from arduino and print it to console;
#X text -52 52 This is used for debug ONLY;
#X text 345 201 clear list;
#X text -45 155 end of msg;
#X connect 0 0 1 0;
#X connect 1 0 2 0;
#X connect 1 0 7 1;
#X connect 2 0 1 1;
#X connect 3 0 6 0;
#X connect 4 0 3 0;
#X connect 4 1 0 0;
#X connect 5 0 7 0;
#X connect 6 0 5 0;
#X connect 7 0 8 0;
#X connect 7 0 9 0;
#X connect 8 0 1 1;
#X connect 10 0 4 0;
#X restore 320 574 pd readFromArduino;
#X obj 186 599 cnv 15 250 250 empty empty empty 20 12 0 14 -203904
-66577 0;
#X text 187 604 translate serial from Arduino;
#X text 128 376 Send msg to web UI & arduino;
#X obj 154 115 r msgToChannel1;
#X obj 369 -86 r msgToChannel3;
#X obj 498 -86 r msgToChannel4;
#X obj -23 599 cnv 15 200 250 empty empty empty 20 12 0 14 -232576
-66577 0;
#N canvas 518 124 498 326 OSC_receive 0;
#X obj 204 -217 unpackOSC;
#X obj 204 -194 pipelist;
#X msg 141 -56 /stop_rec;
#X msg 168 -80 set \$1;
#X obj 140 -105 t b s;
#X msg 220 -56 /delete;
#X msg 245 -77 set \$1;
#X obj 221 -98 t b s;
#X msg 304 -55 /play;
#X msg 329 -76 set \$1;
#X obj 305 -97 t b s;
#X obj 225 -124 unpack s;
#X obj 306 -125 unpack s;
#X obj 139 -128 unpack s;
#X msg 385 -52 /play;
#X msg 410 -73 set \$1;
#X obj 386 -94 t b s;
#X obj 387 -122 unpack s;
#X obj 204 -240 udpreceive 9999;
#X obj 141 9 outlet;
#X obj 221 10 outlet;
#X obj 312 5 outlet;
#X obj 392 1 outlet;
#X obj 37 -182 print osc_receive;
#X obj 204 -168 routeOSC /0 /1 /2 /3 /4;
#X msg 35 -54 /clear_all;
#X msg 62 -78 set \$1;
#X obj 34 -103 t b s;
#X obj 33 -126 unpack s;
#X obj 35 11 outlet;
#X connect 0 0 1 0;
#X connect 0 0 23 0;
#X connect 1 0 24 0;
#X connect 2 0 19 0;
#X connect 3 0 2 0;
#X connect 4 0 2 0;
#X connect 4 1 3 0;
#X connect 5 0 20 0;
#X connect 6 0 5 0;
#X connect 7 0 5 0;
#X connect 7 1 6 0;
#X connect 8 0 21 0;
#X connect 9 0 8 0;
#X connect 10 0 8 0;
#X connect 10 1 9 0;
#X connect 11 0 7 0;
#X connect 12 0 10 0;
#X connect 13 0 4 0;
#X connect 14 0 22 0;
#X connect 15 0 14 0;
#X connect 16 0 14 0;
#X connect 16 1 15 0;
#X connect 17 0 16 0;
#X connect 18 0 0 0;
#X connect 24 0 28 0;
#X connect 24 1 13 0;
#X connect 24 2 11 0;
#X connect 24 3 12 0;
#X connect 24 4 17 0;
#X connect 25 0 29 0;
#X connect 26 0 25 0;
#X connect 27 0 25 0;
#X connect 27 1 26 0;
#X connect 28 0 27 0;
#X restore -5 655 pd OSC_receive;
#X text -6 624 receive OSC from webUI;
#X obj 17 696 s msgToChannel1;
#X obj 34 729 s msgToChannel2;
#X obj 53 756 s msgToChannel3;
#X obj 76 785 s msgToChannel4;
#X obj 247 695 s msgToChannel1;
#X obj 273 726 s msgToChannel2;
#X obj 297 757 s msgToChannel3;
#X obj 323 784 s msgToChannel4;
#X obj 249 -83 r msgToChannel2;
#X msg 270 -1 /start_rec;
#X obj 189 553 print serialOSC_send;
#N canvas 763 368 501 344 serial_receive 0;
#X obj -275 123 list prepend;
#X obj -157 128 t l;
#X obj -215 53 t f f;
#X obj -307 125 bng 15 250 50 0 empty empty empty 17 7 0 10 -262144
-1 -1;
#X obj -312 97 sel 1;
#X obj -301 172 list prepend;
#X obj -159 187 bng 15 250 50 0 empty empty empty 17 7 0 10 -262144
-1 -1;
#X text -180 172 clear list;
#X obj -187 89 - 0;
#N canvas 261 291 524 307 NumToWord 0;
#X obj 167 87 sel 0 1 2 3 4 5 6 7 8 9;
#X obj 167 6 inlet;
#X obj 180 275 outlet;
#X msg -47 145 /start_rec;
#X msg 72 145 /stop_rec;
#X msg 188 146 /play;
#X msg 278 143 /stop;
#X msg 372 143 /delete;
#X connect 0 0 3 0;
#X connect 0 2 4 0;
#X connect 0 4 5 0;
#X connect 0 6 6 0;
#X connect 0 8 7 0;
#X connect 1 0 0 0;
#X connect 3 0 2 0;
#X connect 4 0 2 0;
#X connect 5 0 2 0;
#X connect 6 0 2 0;
#X connect 7 0 2 0;
#X restore -195 260 pd NumToWord;
#X obj -195 231 - 48;
#X obj -311 257 sel 0 1 2 3 4;
#X obj -297 232 - 48;
#X obj -259 295 list;
#X obj -261 346 list trim;
#X obj -192 296 list;
#X obj -194 347 list trim;
#X obj -322 296 list;
#X obj -324 347 list trim;
#X obj -121 297 list;
#X obj -121 348 list trim;
#X obj -201 18 inlet;
#X obj -192 396 outlet;
#X obj -259 393 outlet;
#X obj -122 393 outlet;
#X obj -324 392 outlet;
#X obj -397 295 list;
#X obj -397 346 list trim;
#X obj -398 391 outlet;
#N canvas 150 169 566 356 NumToWord_global 0;
#X obj 167 87 sel 0 1 2 3 4 5 6 7 8 9;
#X obj 167 6 inlet;
#X obj 180 275 outlet;
#X msg 90 154 /clear_all;
#X connect 0 0 3 0;
#X connect 1 0 0 0;
#X connect 3 0 2 0;
#X restore -446 258 pd NumToWord_global;
#X obj -406 229 - 48;
#X text -400 426 Global Parameter;
#X text -326 427 Channel1;
#X text -131 423 Channel4;
#X text -193 426 Channel3;
#X text -265 426 Channel2;
#X obj -311 73 == 14;
#X obj -403 203 print;
#X obj -304 200 unpack 1 1 1;
#X connect 0 0 1 0;
#X connect 0 0 5 1;
#X connect 1 0 0 1;
#X connect 2 0 36 0;
#X connect 2 1 8 0;
#X connect 3 0 5 0;
#X connect 4 0 3 0;
#X connect 5 0 6 0;
#X connect 5 0 37 0;
#X connect 5 0 38 0;
#X connect 6 0 0 1;
#X connect 8 0 0 0;
#X connect 9 0 13 1;
#X connect 9 0 17 1;
#X connect 9 0 15 1;
#X connect 9 0 19 1;
#X connect 10 0 9 0;
#X connect 11 0 26 0;
#X connect 11 1 17 0;
#X connect 11 2 13 0;
#X connect 11 3 15 0;
#X connect 11 4 19 0;
#X connect 12 0 11 0;
#X connect 13 0 14 0;
#X connect 14 0 23 0;
#X connect 15 0 16 0;
#X connect 16 0 22 0;
#X connect 17 0 18 0;
#X connect 18 0 25 0;
#X connect 19 0 20 0;
#X connect 20 0 24 0;
#X connect 21 0 2 0;
#X connect 26 0 27 0;
#X connect 27 0 28 0;
#X connect 29 0 26 1;
#X connect 30 0 29 0;
#X connect 36 0 4 0;
#X connect 38 0 12 0;
#X connect 38 1 10 0;
#X connect 38 1 30 0;
#X restore 223 653 pd serial_receive;
#X text 479 379 Connect OSC and Serial;
#X obj 453 603 cnv 15 300 250 empty empty empty 20 12 0 14 -258113
-66577 0;
#X text 516 613 !!! Clear all !!!;
#X obj 666 628 bng 35 250 50 0 empty empty empty 17 7 0 10 -262144
-1 -1;
#X msg 637 725 /delete;
#X obj 658 758 s msgToChannel2;
#X obj 657 782 s msgToChannel3;
#X obj 652 803 s msgToChannel4;
#X obj 666 674 t b b;
#X obj 648 828 s msgToChannel1;
#X obj 288 136 looper_slave-0-0-3;
#X obj 547 138 looper_slave-0-0-3;
#X obj 149 85 s msgToChannel1;
#X msg 134 -78 /start_rec;
#X msg 140 -54 /stop_rec;
#X msg 147 -32 /play;
#X msg 152 -7 /stop;
#X obj 665 605 r clear_all;
#X obj 71 861 cnv 15 200 200 empty empty empty 20 12 0 14 -233017 -66577
0;
#X text 142 866 General settings;
#X obj 112 927 route /clear_all;
#X obj 114 988 s clear_all;
#X obj -18 -127 loadbang;
#X msg -18 -102 \; pd dsp 1;
#X obj 61 154 adc~;
#X obj 835 96 t b b b;
#X obj 883 119 s tempo1;
#X obj 866 141 s tempo2;
#X obj 845 166 s tempo3;
#X obj 761 398 cnv 15 250 250 empty empty empty 20 12 0 14 -232576
-66577 0;
#N canvas 313 591 399 317 click~ 0;
#X obj 211 64 inlet bng;
#X obj 211 86 bng 15 250 50 0 empty empty empty 17 7 0 10 -262144 -1
-1;
#X obj 241 116 del 30;
#X msg 241 138 0;
#X obj 129 177 osc~ 4000;
#X obj 129 219 *~ 0;
#X obj 129 261 outlet~;
#X text 120 20 just generate click sound;
#X obj 211 178 f;
#X msg 211 138 0.1;
#X connect 0 0 1 0;
#X connect 1 0 9 0;
#X connect 1 0 2 0;
#X connect 2 0 3 0;
#X connect 3 0 8 0;
#X connect 4 0 5 0;
#X connect 5 0 6 0;
#X connect 8 0 5 1;
#X connect 9 0 8 0;
#X restore 851 524 pd click~;
#X text 843 435 metronome;
#X obj 950 420 tgl 25 0 empty empty empty 17 7 0 10 -262144 -1 -1 0
1;
#X obj 891 477 i 0;
#X obj 778 423 r tempo;
#X obj 845 579 dac~;
#X connect 0 0 44 0;
#X connect 0 1 45 0;
#X connect 0 2 46 0;
#X connect 0 4 1 0;
#X connect 0 4 1 1;
#X connect 3 0 25 0;
#X connect 4 0 3 0;
#X connect 5 0 6 0;
#X connect 6 0 118 0;
#X connect 9 0 103 0;
#X connect 10 0 103 0;
#X connect 11 0 103 0;
#X connect 12 0 103 0;
#X connect 13 0 70 0;
#X connect 14 0 70 0;
#X connect 15 0 70 0;
#X connect 16 0 70 0;
#X connect 17 0 70 0;
#X connect 18 0 104 0;
#X connect 19 0 104 0;
#X connect 20 0 104 0;
#X connect 21 0 104 0;
#X connect 22 0 104 0;
#X connect 24 0 67 0;
#X connect 25 0 66 0;
#X connect 26 0 103 1;
#X connect 27 0 26 0;
#X connect 28 0 30 0;
#X connect 29 0 31 0;
#X connect 30 0 70 1;
#X connect 31 0 104 1;
#X connect 33 0 37 0;
#X connect 34 0 39 0;
#X connect 35 0 39 0;
#X connect 35 0 65 0;
#X connect 36 0 33 0;
#X connect 38 0 33 0;
#X connect 39 0 33 0;
#X connect 40 0 41 0;
#X connect 40 0 68 0;
#X connect 40 0 91 0;
#X connect 41 0 36 0;
#X connect 63 0 64 0;
#X connect 64 0 92 0;
#X connect 65 0 64 0;
#X connect 68 0 69 0;
#X connect 69 0 64 0;
#X connect 70 0 56 0;
#X connect 70 1 57 0;
#X connect 70 2 58 0;
#X connect 70 3 1 0;
#X connect 70 3 1 1;
#X connect 75 0 0 0;
#X connect 76 0 70 0;
#X connect 77 0 104 0;
#X connect 79 0 113 0;
#X connect 79 1 81 0;
#X connect 79 2 82 0;
#X connect 79 3 83 0;
#X connect 79 4 84 0;
#X connect 89 0 103 0;
#X connect 90 0 103 0;
#X connect 92 0 113 0;
#X connect 92 1 85 0;
#X connect 92 2 86 0;
#X connect 92 3 87 0;
#X connect 92 4 88 0;
#X connect 96 0 101 0;
#X connect 97 0 98 0;
#X connect 97 0 99 0;
#X connect 97 0 100 0;
#X connect 97 0 102 0;
#X connect 101 1 97 0;
#X connect 103 0 50 0;
#X connect 103 1 51 0;
#X connect 103 2 52 0;
#X connect 103 3 1 0;
#X connect 103 3 1 1;
#X connect 104 0 53 0;
#X connect 104 1 54 0;
#X connect 104 2 55 0;
#X connect 104 3 1 0;
#X connect 104 3 1 1;
#X connect 106 0 105 0;
#X connect 107 0 105 0;
#X connect 108 0 105 0;
#X connect 109 0 105 0;
#X connect 110 0 96 0;
#X connect 113 0 114 0;
#X connect 115 0 116 0;
#X connect 117 0 1 0;
#X connect 117 1 1 1;
#X connect 118 0 121 0;
#X connect 118 0 24 0;
#X connect 118 1 120 0;
#X connect 118 2 119 0;
#X connect 123 0 128 1;
#X connect 123 0 128 0;
#X connect 125 0 126 1;
#X connect 126 0 123 0;
#X connect 127 0 126 0;
